# xmcd
#
# Track frame offsets:
#	150
#	18717
#	36107
#	57515
#	72982
#	89880
#	106272
#	116370
#	135715
#	148335
#	164802
#	189770
#	209190
#	224582
#	247140
#
# Disc length: 3492 seconds
#
# Revision: 0
# Processed by: cddbd v1.5.2PL0 Copyright (c) Steve Scherf et al.
# Submitted via: EasyCDDAExtractor 16.0.6.1
#
DISCID=fb0da20f
DTITLE=Σαμίου Δόμνα - Κανελόριζα-Δ. Σαμίου
DYEAR=1996
DGENRE=Παραδοσιακή
TTITLE0=Σαμίου Δόμνα - Κανελόριζα [καρσιλαμάς Μικράς Ασίας]
TTITLE1=Σαμίου Δόμνα - Υποψία να μην έχεις [ζεϊμπέκικο Μικράς Ασίας]
TTITLE2=Σαμίου Δόμνα - Το πονεμένο στήθος μου [αργό συρτό καλαματ. Αν. Αιγαίου
TTITLE2=]
TTITLE3=Σαμίου Δόμνα - Είναι καρδιές όπου γελούν [συρτό καλαματιανό Μικράς Ασί
TTITLE3=ας]
TTITLE4=Άνευ ερμηνευτού - Καρσιλαμάς [Μικράς Ασίας-οργανικό]
TTITLE5=Σαμίου Δόμνα - Σωκιανή [ζεϊμπέκικο Μικράς Ασίας]
TTITLE6=Χορωδία - Ακούς τους μύλους [συρτό καλαματιανό Μακεδονίας]
TTITLE7=Σαμίου Δόμνα - Φέτο το καλοκαιράκι [ζεϊμπέκικο Μυτιλήνης]
TTITLE8=Άνευ ερμηνευτού - Μαντηλάτος [χορός Ανατολικής Ρωμυλίας-οργανικό]
TTITLE9=Σαμίου Δόμνα - Αποφάσισα να γίνω [αργό ζεϊμπέκικο Μικράς Ασίας]
TTITLE10=Σαμίου Δόμνα - Τίνος να πω τον πόνο μου [αργό συρτό καλαματ. Μυτιλήνη
TTITLE10=ς]
TTITLE11=Άνευ ερμηνευτού - Καρσιλαμάς [Πηλίου-οργανικό]
TTITLE12=Χορωδία - Καλέ συ  [συρτό καλαματιανό Μικράς Ασίας]
TTITLE13=Σαμίου Δόμνα - Βασίλω Καλαματιανή [συρτό καλαματιανό Πελοποννήσου]
TTITLE14=Άνευ ερμηνευτού - Χορευτικός σκοπός [συρτό καλαματ. Χαλκιδικής-οργανι
TTITLE14=κό]
EXTD=
EXTT0=
EXTT1=
EXTT2=
EXTT3=
EXTT4=
EXTT5=
EXTT6=
EXTT7=
EXTT8=
EXTT9=
EXTT10=
EXTT11=
EXTT12=
EXTT13=
EXTT14=
PLAYORDER=
